<?xml version="1.0" encoding="UTF-8" standalone="no"?><svg xmlns="http://www.w3.org/2000/svg" xmlns:xlink="http://www.w3.org/1999/xlink" contentScriptType="text/ecmascript" zoomAndPan="magnify" text-rendering="geometricPrecision" contentStyleType="text/css" version="1" width="4416" clip-rule="evenodd" fill="#000000" preserveAspectRatio="xMidYMid meet" viewBox="0.0 -0.0 4415.8 264.3" height="264" fill-rule="evenodd" image-rendering="optimizeQuality"><g><g fill="#ecc440" id="change1_1" fill-rule="nonzero"><path d="M14.62 235.05c-8.08,0 -14.62,6.55 -14.62,14.62 0,8.08 6.55,14.62 14.62,14.62l1271.8 0c4.11,0 7.83,-1.7 10.48,-4.43l121.6 -121.6 2982.62 0c8.07,0 14.62,-6.55 14.62,-14.62 0,-8.07 -6.55,-14.62 -14.62,-14.62l-2988.68 0c-3.74,0 -7.48,1.43 -10.34,4.29l-121.75 121.75 -1265.74 0z"/><path d="M772.01 39.62c-8.07,0 -14.62,6.55 -14.62,14.62 0,8.07 6.55,14.62 14.62,14.62l567.47 0 191.19 191.19c2.86,2.85 6.6,4.28 10.34,4.28l2860.12 0c8.08,0 14.62,-6.55 14.62,-14.62 0,-8.07 -6.55,-14.62 -14.62,-14.62l-2854.06 0 -191.05 -191.05c-2.66,-2.73 -6.37,-4.43 -10.48,-4.43l-573.53 0z"/><path d="M729.42 0c14.98,0 28.54,6.07 38.36,15.89 9.82,9.82 15.89,23.38 15.89,38.36 0,14.98 -6.07,28.54 -15.89,38.36 -9.82,9.82 -23.38,15.89 -38.36,15.89 -14.98,0 -28.54,-6.07 -38.36,-15.89 -9.82,-9.82 -15.89,-23.38 -15.89,-38.36 0,-14.98 6.07,-28.54 15.89,-38.36 9.82,-9.82 23.38,-15.89 38.36,-15.89zm17.68 36.56c-4.52,-4.52 -10.78,-7.32 -17.68,-7.32 -6.9,0 -13.16,2.8 -17.68,7.32 -4.52,4.52 -7.32,10.78 -7.32,17.68 0,6.9 2.8,13.16 7.32,17.68 4.52,4.52 10.78,7.32 17.68,7.32 6.9,0 13.16,-2.8 17.68,-7.32 4.52,-4.52 7.32,-10.78 7.32,-17.68 0,-6.9 -2.8,-13.16 -7.32,-17.68z"/></g></g></svg>